<svg xmlns="http://www.w3.org/2000/svg" width="46.536" height="46.536" viewBox="0 0 46.536 46.536">
  <path id="Icon_awesome-linkedin" data-name="Icon awesome-linkedin" d="M43.212,2.25H3.314A3.338,3.338,0,0,0,0,5.605V45.431a3.338,3.338,0,0,0,3.314,3.355h39.9a3.347,3.347,0,0,0,3.324-3.355V5.605A3.347,3.347,0,0,0,43.212,2.25ZM14.065,42.138h-6.9V19.93h6.908V42.138ZM10.616,16.9a4,4,0,1,1,4-4,4,4,0,0,1-4,4Zm29.3,25.242h-6.9v-10.8c0-2.576-.052-5.89-3.584-5.89-3.594,0-4.145,2.8-4.145,5.7v10.99H18.4V19.93h6.617v3.033h.093a7.265,7.265,0,0,1,6.534-3.584c6.98,0,8.279,4.6,8.279,10.585Z" transform="translate(0 -2.25)" fill="#7e7e7e"/>
</svg>
