<svg xmlns="http://www.w3.org/2000/svg" width="46.231" height="46.231" viewBox="0 0 46.231 46.231">
  <path id="Icon_awesome-dribbble" data-name="Icon awesome-dribbble" d="M23.678.563A23.116,23.116,0,1,0,46.794,23.678,23.142,23.142,0,0,0,23.678.563Zm15.283,10.66a19.65,19.65,0,0,1,4.459,12.3,46.141,46.141,0,0,0-13.748-.635c-.536-1.309-1.042-2.46-1.735-3.879C35.237,16.027,38.545,11.785,38.962,11.222ZM36.767,8.939c-.355.506-3.327,4.5-10.348,7.132A105.392,105.392,0,0,0,19.051,4.513,19.693,19.693,0,0,1,36.767,8.939ZM15.284,5.84A125.982,125.982,0,0,1,22.6,17.259,73.646,73.646,0,0,1,4.351,19.664,19.817,19.817,0,0,1,15.284,5.84ZM3.934,23.708c0-.2,0-.4.01-.6A72.833,72.833,0,0,0,24.236,20.3c.565,1.106,1.105,2.229,1.6,3.351C18.7,25.657,12.21,31.431,9.01,36.91A19.665,19.665,0,0,1,3.934,23.708Zm7.625,15.576c2.062-4.216,7.66-9.658,15.62-12.374a82.072,82.072,0,0,1,4.212,14.973,19.7,19.7,0,0,1-19.832-2.6Zm23.151.791A85.219,85.219,0,0,0,30.874,26a28.98,28.98,0,0,1,12.3.844A19.779,19.779,0,0,1,34.71,40.076Z" transform="translate(-0.563 -0.563)" fill="#7e7e7e"/>
</svg>
