<svg id="Icon_feather-mail" data-name="Icon feather-mail" xmlns="http://www.w3.org/2000/svg" width="56.878" height="46.536" viewBox="0 0 56.878 46.536">
  <path id="Path_1" data-name="Path 1" d="M9.256,4.5H50.622a7.765,7.765,0,0,1,7.756,7.756V43.28a7.765,7.765,0,0,1-7.756,7.756H9.256A7.765,7.765,0,0,1,1.5,43.28V12.256A7.765,7.765,0,0,1,9.256,4.5ZM50.622,45.866a2.588,2.588,0,0,0,2.585-2.585V12.256a2.588,2.588,0,0,0-2.585-2.585H9.256a2.588,2.588,0,0,0-2.585,2.585V43.28a2.588,2.588,0,0,0,2.585,2.585Z" transform="translate(-1.5 -4.5)" fill="#7e7e7e"/>
  <path id="Path_2" data-name="Path 2" d="M29.939,30.768a2.582,2.582,0,0,1-1.483-.467L2.6,12.2A2.585,2.585,0,1,1,5.568,7.967l24.371,17.06L54.31,7.967A2.585,2.585,0,1,1,57.275,12.2L31.422,30.3A2.582,2.582,0,0,1,29.939,30.768Z" transform="translate(-1.5 -2.329)" fill="#7e7e7e"/>
</svg>
